<svg xmlns="http://www.w3.org/2000/svg" viewBox="0 0 64 64">
  <defs>
    <linearGradient id="grad1" x1="0%" y1="0%" x2="100%" y2="100%">
      <stop offset="0%" style="stop-color:#4a90e2;stop-opacity:1" />
      <stop offset="100%" style="stop-color:#2c3e50;stop-opacity:1" />
    </linearGradient>
  </defs>
  <rect x="0" y="0" width="64" height="64" rx="16" fill="url(#grad1)" />
  <path d="M42.5 38.5c1.8-3.2 2.8-6.9 2.8-10.8C45.3 17.9 37.4 10 27.7 10S10 17.9 10 27.7s7.9 17.7 17.7 17.7c3.9 0 7.6-1.1 10.8-2.8l11.4 11.4c1.2 1.2 3.1 1.2 4.2 0l0 0c1.2-1.2 1.2-3.1 0-4.2L42.5 38.5z M27.7 39.4c-6.5 0-11.7-5.3-11.7-11.7s5.3-11.7 11.7-11.7s11.7 5.3 11.7 11.7S34.1 39.4 27.7 39.4z" fill="white"/>
</svg>
